<?xml version="1.0" encoding="UTF-8"?>
<svg width="1000" height="360" viewBox="0 0 1000 360" xmlns="http://www.w3.org/2000/svg">
<defs>
<linearGradient id="bg" x1="0%" y1="0%" x2="0%" y2="100%">
<stop offset="0%" stop-color="#0D1117"/><stop offset="100%" stop-color="#090B10"/>
</linearGradient>
<pattern id="grid2" width="28" height="28" patternUnits="userSpaceOnUse">
<path d="M28 0 L0 0 0 28" fill="none" stroke="#1a2129" stroke-width="1"/>
</pattern>
<linearGradient id="greenBar" x1="0%" y1="0%" x2="100%" y2="0%">
<stop offset="0%" stop-color="#7CFC00"/><stop offset="100%" stop-color="#9FEF00"/>
</linearGradient>
<filter id="glow"><feGaussianBlur stdDeviation="3" result="b"/><feMerge><feMergeNode in="b"/><feMergeNode in="SourceGraphic"/></feMerge></filter>
<style><![CDATA[
text{font-family:Fira Code,Consolas,monospace}
.small{fill:#5a6472;font-size:12px}.head{fill:#c9f7a8;font-size:14px}.term{fill:#9FEF00}
]]></style>
</defs>
<rect width="1000" height="360" rx="10" fill="url(#bg)"/>
<rect width="1000" height="360" rx="10" fill="url(#grid2)"/>
<text x="500" y="190" text-anchor="middle" font-size="80" fill="#9FEF00" opacity="0.03">RACHIT AGARWAL</text>
<rect width="1000" height="34" rx="10" fill="#11161d"/>
<line x1="0" y1="34" x2="1000" y2="34" stroke="#232b34"/>
<circle cx="24" cy="17" r="6" fill="#ff5f56"/><circle cx="46" cy="17" r="6" fill="#ffbd2e"/><circle cx="68" cy="17" r="6" fill="#27c93f"/>
<text x="500" y="21" text-anchor="middle" class="small">rachit@devsecops ~/skills --scan</text>
<text x="40" y="66" font-size="15"><tspan fill="#50FA7B">guest</tspan><tspan fill="#8BE9FD">@</tspan><tspan fill="#BD93F9">rachit-agarwal</tspan><tspan fill="#fff">:~$ </tspan><tspan class="term">./skills --scan --verbose</tspan></text>
<text x="40" y="98" class="small">[PROFICIENCY]</text><text x="640" y="98" class="small">[FOCUS]</text>
<!-- bars -->
<script/>
<g id="bars">
<text x="40" y="126" class="head">Java</text><rect x="200" y="114" width="320" height="14" rx="3" fill="#1a2129"/><rect x="200" y="114" width="290" height="14" rx="3" fill="url(#greenBar)" filter="url(#glow)"><animate attributeName="width" from="0" to="290" dur="1s" begin="0.0s" fill="freeze"/></rect><text x="530" y="126" class="small">█████████░ 9.0</text>
<text x="40" y="156" class="head">Python</text><rect x="200" y="144" width="320" height="14" rx="3" fill="#1a2129"/><rect x="200" y="144" width="255" height="14" rx="3" fill="url(#greenBar)" filter="url(#glow)"><animate attributeName="width" from="0" to="255" dur="1s" begin="0.15s" fill="freeze"/></rect><text x="530" y="156" class="small">███████░░░ 7.5</text>
<text x="40" y="186" class="head">Linux / Bash</text><rect x="200" y="174" width="320" height="14" rx="3" fill="#1a2129"/><rect x="200" y="174" width="306" height="14" rx="3" fill="url(#greenBar)" filter="url(#glow)"><animate attributeName="width" from="0" to="306" dur="1s" begin="0.3s" fill="freeze"/></rect><text x="530" y="186" class="small">█████████░ 9.0</text>
<text x="40" y="216" class="head">Security Tooling</text><rect x="200" y="204" width="320" height="14" rx="3" fill="#1a2129"/><rect x="200" y="204" width="272" height="14" rx="3" fill="url(#greenBar)" filter="url(#glow)"><animate attributeName="width" from="0" to="272" dur="1s" begin="0.44999999999999996s" fill="freeze"/></rect><text x="530" y="216" class="small">████████░░ 8.0</text>
<text x="40" y="246" class="head">DevOps / CI-CD</text><rect x="200" y="234" width="320" height="14" rx="3" fill="#1a2129"/><rect x="200" y="234" width="221" height="14" rx="3" fill="url(#greenBar)" filter="url(#glow)"><animate attributeName="width" from="0" to="221" dur="1s" begin="0.6s" fill="freeze"/></rect><text x="530" y="246" class="small">██████░░░░ 6.5</text>
<text x="40" y="276" class="head">Cloud / Kubernetes</text><rect x="200" y="264" width="320" height="14" rx="3" fill="#1a2129"/><rect x="200" y="264" width="170" height="14" rx="3" fill="url(#greenBar)" filter="url(#glow)"><animate attributeName="width" from="0" to="170" dur="1s" begin="0.75s" fill="freeze"/></rect><text x="530" y="276" class="small">█████░░░░░ 5.0</text>
</g>
<g class="head">
<text x="640" y="126">[✓] Secure Software Development</text>
<text x="640" y="156">[✓] DevSecOps Pipelines</text>
<text x="640" y="186">[✓] Web &amp; Network Pentesting</text>
<text x="640" y="216">[✓] Linux Administration</text>
<text x="640" y="246">[✓] Hack The Box / CTF</text>
<text x="640" y="276">[✓] Applied Security Research</text>
</g>
<text x="40" y="316" class="small">[STATUS] <tspan class="term">Learning Docker • Kubernetes • Cloud Security</tspan></text>
<text x="40" y="338" class="small">guest@rachit:~$ <tspan class="term">_</tspan><animate attributeName="opacity" values="1;0;1" dur="1s" repeatCount="indefinite"/></text>
<text x="640" y="316" class="small">publication.status = <tspan class="term">SUCCESS</tspan></text>
<text x="640" y="338" class="small">Taylor &amp; Francis • ICITEED 2025</text>
<rect x="0" y="34" width="1000" height="2" fill="#9FEF00" opacity=".25"><animate attributeName="y" from="34" to="360" dur="3s" repeatCount="indefinite"/></rect>
</svg>
