<svg width="1000" height="360" viewBox="0 0 1000 360" xmlns="http://www.w3.org/2000/svg">
  <defs>
    <pattern id="grid2" width="28" height="28" patternUnits="userSpaceOnUse">
      <path d="M 28 0 L 0 0 0 28" fill="none" stroke="#1a2129" stroke-width="1"/>
    </pattern>
  </defs>

  <rect x="0" y="0" width="1000" height="360" rx="10" fill="#0D1117"/>
  <rect x="0" y="0" width="1000" height="360" rx="10" fill="url(#grid2)"/>
  <rect x="1" y="1" width="998" height="358" rx="9" fill="none" stroke="#9FEF00" stroke-opacity="0.35" stroke-width="1.5"/>

  <!-- title bar -->
  <rect x="0" y="0" width="1000" height="34" rx="10" fill="#11161d"/>
  <rect x="0" y="24" width="1000" height="10" fill="#11161d"/>
  <line x1="0" y1="34" x2="1000" y2="34" stroke="#232b34" stroke-width="1"/>
  <circle cx="24" cy="17" r="6" fill="#FF5F56"/>
  <circle cx="46" cy="17" r="6" fill="#FFBD2E"/>
  <circle cx="68" cy="17" r="6" fill="#27C93F"/>
  <text x="500" y="21" text-anchor="middle" font-family="'Fira Code', 'Consolas', monospace" font-size="12" fill="#5a6472">rachit@devsecops: ~/profile — skill_matrix.sh</text>

  <text x="40" y="66" font-family="'Fira Code', 'Consolas', monospace" font-size="15" fill="#5a6472">guest@rachit-agarwal:~$ <tspan fill="#9FEF00">./skill_matrix.sh --verbose</tspan></text>

  <!-- column headers -->
  <text x="40" y="98" font-family="'Fira Code', 'Consolas', monospace" font-size="13" fill="#5a6472">[PROFICIENCY]</text>
  <text x="560" y="98" font-family="'Fira Code', 'Consolas', monospace" font-size="13" fill="#5a6472">[FOCUS AREAS]</text>

  <!-- LEFT COLUMN: skill bars -->
  <!-- Java -->
  <text x="40" y="126" font-family="'Fira Code', 'Consolas', monospace" font-size="14" fill="#c9f7a8">Java</text>
  <rect x="140" y="114" width="340" height="14" rx="3" fill="#1a2129"/>
  <rect x="140" y="114" width="290" height="14" rx="3" fill="#9FEF00"/>
  <text x="490" y="126" font-family="'Fira Code', 'Consolas', monospace" font-size="12" fill="#5a6472">85%</text>

  <!-- Python -->
  <text x="40" y="156" font-family="'Fira Code', 'Consolas', monospace" font-size="14" fill="#c9f7a8">Python</text>
  <rect x="140" y="144" width="340" height="14" rx="3" fill="#1a2129"/>
  <rect x="140" y="144" width="255" height="14" rx="3" fill="#9FEF00"/>
  <text x="490" y="156" font-family="'Fira Code', 'Consolas', monospace" font-size="12" fill="#5a6472">75%</text>

  <!-- Linux / Bash -->
  <text x="40" y="186" font-family="'Fira Code', 'Consolas', monospace" font-size="14" fill="#c9f7a8">Linux / Bash</text>
  <rect x="140" y="174" width="340" height="14" rx="3" fill="#1a2129"/>
  <rect x="140" y="174" width="306" height="14" rx="3" fill="#9FEF00"/>
  <text x="490" y="186" font-family="'Fira Code', 'Consolas', monospace" font-size="12" fill="#5a6472">90%</text>

  <!-- Security Tooling -->
  <text x="40" y="216" font-family="'Fira Code', 'Consolas', monospace" font-size="14" fill="#c9f7a8">Security Tooling</text>
  <rect x="140" y="204" width="340" height="14" rx="3" fill="#1a2129"/>
  <rect x="140" y="204" width="272" height="14" rx="3" fill="#9FEF00"/>
  <text x="490" y="216" font-family="'Fira Code', 'Consolas', monospace" font-size="12" fill="#5a6472">80%</text>

  <!-- DevOps / CI-CD -->
  <text x="40" y="246" font-family="'Fira Code', 'Consolas', monospace" font-size="14" fill="#c9f7a8">DevOps / CI-CD</text>
  <rect x="140" y="234" width="340" height="14" rx="3" fill="#1a2129"/>
  <rect x="140" y="234" width="221" height="14" rx="3" fill="#9FEF00"/>
  <text x="490" y="246" font-family="'Fira Code', 'Consolas', monospace" font-size="12" fill="#5a6472">65%</text>

  <!-- Cloud / K8s -->
  <text x="40" y="276" font-family="'Fira Code', 'Consolas', monospace" font-size="14" fill="#c9f7a8">Cloud / Kubernetes</text>
  <rect x="140" y="264" width="340" height="14" rx="3" fill="#1a2129"/>
  <rect x="140" y="264" width="170" height="14" rx="3" fill="#9FEF00"/>
  <text x="490" y="276" font-family="'Fira Code', 'Consolas', monospace" font-size="12" fill="#5a6472">50%</text>

  <!-- status line -->
  <text x="40" y="316" font-family="'Fira Code', 'Consolas', monospace" font-size="13" fill="#5a6472">[STATUS] <tspan fill="#9FEF00">Actively learning: Kubernetes, Docker, Cloud Security</tspan></text>
  <text x="40" y="338" font-family="'Fira Code', 'Consolas', monospace" font-size="13" fill="#5a6472">[EXIT CODE] <tspan fill="#9FEF00">0 — process completed successfully</tspan></text>

  <!-- RIGHT COLUMN: focus areas -->
  <text x="560" y="126" font-family="'Fira Code', 'Consolas', monospace" font-size="14" fill="#c9f7a8">▸ Secure Software Development</text>
  <text x="560" y="152" font-family="'Fira Code', 'Consolas', monospace" font-size="14" fill="#c9f7a8">▸ DevSecOps Pipelines</text>
  <text x="560" y="178" font-family="'Fira Code', 'Consolas', monospace" font-size="14" fill="#c9f7a8">▸ Network &amp; Web Penetration Testing</text>
  <text x="560" y="204" font-family="'Fira Code', 'Consolas', monospace" font-size="14" fill="#c9f7a8">▸ Linux System Administration</text>
  <text x="560" y="230" font-family="'Fira Code', 'Consolas', monospace" font-size="14" fill="#c9f7a8">▸ CTF &amp; HackTheBox Practice</text>
  <text x="560" y="256" font-family="'Fira Code', 'Consolas', monospace" font-size="14" fill="#c9f7a8">▸ Applied Security Research</text>

  <rect x="560" y="284" width="400" height="1" fill="#232b34"/>
  <text x="560" y="312" font-family="'Fira Code', 'Consolas', monospace" font-size="13" fill="#5a6472">[PUBLICATION] <tspan fill="#9FEF00">ICITEEB 2025</tspan></text>
  <text x="560" y="334" font-family="'Fira Code', 'Consolas', monospace" font-size="13" fill="#5a6472">[PUBLISHER] <tspan fill="#9FEF00">Taylor &amp; Francis (Book Chapter)</tspan></text>
</svg>
